<?xml version="1.0" encoding="UTF-8"?><svg id="Layer_1" xmlns="http://www.w3.org/2000/svg" viewBox="0 0 361.65 126.63"><defs><style>.cls-1{fill:#fff;}</style></defs><g><path class="cls-1" d="M71.2,20.91v54.43c0,11.66-2.72,20.29-8.14,25.88-5.43,5.59-13.33,8.38-23.69,8.38s-18.27-2.79-23.69-8.38c-5.43-5.59-8.14-14.22-8.14-25.88V20.91h2.43v54.43c0,10.45,2.39,18.39,7.17,23.81,4.78,5.43,12.19,8.14,22.23,8.14s17.45-2.71,22.23-8.14c4.78-5.43,7.17-13.36,7.17-23.81V20.91h2.43Z"/><path class="cls-1" d="M85.28,56.17v12.72h.2c.47-2,1.22-3.84,2.25-5.51,1.04-1.67,2.34-3.14,3.91-4.41,1.57-1.27,3.39-2.25,5.46-2.96,2.07-.7,4.37-1.05,6.91-1.05,2.67,0,5.13,.4,7.36,1.2,2.24,.8,4.17,1.99,5.81,3.56,1.64,1.57,2.91,3.51,3.81,5.81,.9,2.3,1.35,4.96,1.35,7.96v34.16h-2v-33.86c0-3.01-.44-5.56-1.3-7.66-.87-2.1-2.05-3.84-3.56-5.21-1.5-1.37-3.24-2.37-5.21-3.01-1.97-.63-4.06-.95-6.26-.95-3.07,0-5.78,.59-8.11,1.75-2.34,1.17-4.29,2.74-5.86,4.71-1.57,1.97-2.76,4.26-3.56,6.86-.8,2.61-1.2,5.34-1.2,8.21v29.15h-2V56.17h2Z"/><path class="cls-1" d="M133.37,107.66V56.17h2v51.49h-2Z"/><path class="cls-1" d="M182.86,56.17l-19.44,51.49h-2.5l-21.14-51.49h2.3l19.94,49.49h.2l18.43-49.49h2.2Z"/><path class="cls-1" d="M187.41,91.98c.77,2.97,1.95,5.56,3.56,7.77s3.67,3.94,6.21,5.21c2.54,1.27,5.64,1.9,9.32,1.9,5.41,0,9.9-1.42,13.47-4.26,3.57-2.84,5.79-7.1,6.66-12.77h2c-.74,6.01-3.11,10.67-7.11,13.98-4.01,3.31-8.95,4.96-14.83,4.96-4.01,.07-7.43-.57-10.27-1.9-2.84-1.33-5.16-3.22-6.96-5.66-1.8-2.44-3.14-5.31-4.01-8.62-.87-3.31-1.3-6.86-1.3-10.67,0-4.27,.63-8.08,1.9-11.42,1.27-3.34,2.94-6.16,5.01-8.47,2.07-2.3,4.47-4.06,7.21-5.26s5.54-1.8,8.42-1.8c4.01,0,7.46,.77,10.37,2.31,2.9,1.54,5.27,3.57,7.11,6.11,1.84,2.54,3.17,5.44,4.01,8.72,.83,3.27,1.19,6.68,1.05,10.22h-43.08c.07,3.47,.48,6.7,1.25,9.67Zm38.52-20.64c-.87-2.84-2.15-5.33-3.86-7.46s-3.82-3.82-6.36-5.06c-2.54-1.23-5.48-1.85-8.82-1.85-2.8,0-5.43,.53-7.86,1.6s-4.58,2.62-6.41,4.66c-1.84,2.04-3.32,4.49-4.46,7.36-1.14,2.87-1.8,6.11-2,9.72h41.08c0-3.14-.44-6.13-1.3-8.97Z"/><path class="cls-1" d="M237.26,107.66V56.17h2v12.72h.2c.47-1.94,1.2-3.76,2.2-5.46s2.34-3.19,4.01-4.46c1.67-1.27,3.66-2.27,5.96-3.01,2.31-.73,4.99-1.07,8.07-1v2c-3.54-.2-6.6,.29-9.17,1.45-2.57,1.17-4.69,2.77-6.36,4.81-1.67,2.04-2.9,4.39-3.71,7.06-.8,2.67-1.2,5.41-1.2,8.21v29.15h-2Z"/><path class="cls-1" d="M295.56,64.78c-.8-1.8-1.94-3.29-3.41-4.46-1.47-1.17-3.22-2.02-5.26-2.55-2.04-.53-4.29-.8-6.76-.8-3.61,0-6.45,.48-8.52,1.45-2.07,.97-3.61,2.07-4.61,3.31-1,1.24-1.64,2.45-1.9,3.66-.27,1.2-.4,2.04-.4,2.5,0,2.54,.52,4.49,1.55,5.86,1.03,1.37,2.42,2.42,4.16,3.16,1.8,.74,3.76,1.37,5.86,1.9,2.1,.53,4.56,1.17,7.36,1.9,2,.54,3.99,1.09,5.96,1.65,1.97,.57,3.74,1.35,5.31,2.35,1.57,1,2.84,2.27,3.81,3.8,.97,1.54,1.45,3.54,1.45,6.01,0,2.61-.55,4.81-1.65,6.61-1.1,1.81-2.54,3.28-4.31,4.41-1.77,1.14-3.77,1.95-6.01,2.45-2.24,.5-4.46,.75-6.66,.75-6.88,0-12.07-1.5-15.58-4.51-3.51-3-5.26-7.75-5.26-14.23h2c0,5.81,1.62,10.07,4.86,12.77,3.24,2.71,7.9,4.06,13.98,4.06,1.87,0,3.79-.22,5.76-.65,1.97-.43,3.76-1.14,5.36-2.1,1.6-.97,2.92-2.22,3.96-3.76,1.03-1.54,1.55-3.41,1.55-5.61s-.52-4.11-1.55-5.51c-1.04-1.4-2.37-2.55-4.01-3.46-1.64-.9-3.52-1.62-5.66-2.15s-4.31-1.07-6.51-1.6c-2.47-.6-4.64-1.17-6.51-1.7-1.87-.53-3.54-1.14-5.01-1.81-2.14-.93-3.71-2.24-4.71-3.91-1-1.67-1.5-3.91-1.5-6.71,0-1.4,.3-2.87,.9-4.41,.6-1.54,1.6-2.94,3.01-4.21,1.4-1.27,3.21-2.3,5.41-3.11s4.91-1.2,8.12-1.2c5.74,0,10.28,1.3,13.62,3.91,3.34,2.6,5.01,6.78,5.01,12.52h-2c0-2.6-.4-4.81-1.2-6.61Z"/><path class="cls-1" d="M309.84,91.98c.77,2.97,1.95,5.56,3.56,7.77s3.67,3.94,6.21,5.21c2.54,1.27,5.64,1.9,9.32,1.9,5.41,0,9.9-1.42,13.47-4.26,3.57-2.84,5.79-7.1,6.66-12.77h2c-.74,6.01-3.11,10.67-7.11,13.98-4.01,3.31-8.95,4.96-14.83,4.96-4.01,.07-7.43-.57-10.27-1.9-2.84-1.33-5.16-3.22-6.96-5.66-1.8-2.44-3.14-5.31-4.01-8.62-.87-3.31-1.3-6.86-1.3-10.67,0-4.27,.63-8.08,1.9-11.42,1.27-3.34,2.94-6.16,5.01-8.47,2.07-2.3,4.47-4.06,7.21-5.26s5.54-1.8,8.42-1.8c4.01,0,7.46,.77,10.37,2.31,2.9,1.54,5.27,3.57,7.11,6.11,1.84,2.54,3.17,5.44,4.01,8.72,.83,3.27,1.19,6.68,1.05,10.22h-43.08c.07,3.47,.48,6.7,1.25,9.67Zm38.52-20.64c-.87-2.84-2.15-5.33-3.86-7.46s-3.82-3.82-6.36-5.06c-2.54-1.23-5.48-1.85-8.82-1.85-2.8,0-5.43,.53-7.86,1.6s-4.58,2.62-6.41,4.66c-1.84,2.04-3.32,4.49-4.46,7.36-1.14,2.87-1.8,6.11-2,9.72h41.08c0-3.14-.44-6.13-1.3-8.97Z"/></g><g><path class="cls-1" d="M91.53,25.82l7.09,18.07h-1.85l-2.2-5.62h-8.23l-2.18,5.62h-1.82l7.26-18.07h1.92Zm2.46,10.98l-3.49-9.26-3.62,9.26h7.11Z"/><path class="cls-1" d="M108.46,30.83v2.2h.08c.42-.81,.98-1.44,1.66-1.9,.68-.46,1.56-.68,2.62-.68,.86,0,1.64,.21,2.34,.63s1.17,1.06,1.4,1.92c.39-.86,.96-1.5,1.72-1.92s1.57-.63,2.43-.63c2.89,0,4.33,1.53,4.33,4.58v8.86h-1.59v-8.78c0-1.08-.23-1.9-.68-2.47-.46-.57-1.26-.85-2.4-.85-.69,0-1.27,.13-1.72,.39-.46,.26-.82,.61-1.09,1.05-.27,.44-.46,.94-.57,1.5-.11,.57-.16,1.15-.16,1.76v7.39h-1.59v-8.86c0-.44-.05-.86-.14-1.25-.09-.4-.25-.74-.46-1.04-.21-.29-.49-.53-.85-.7-.35-.17-.78-.25-1.29-.25-.68,0-1.26,.12-1.76,.37-.5,.25-.9,.58-1.21,1.01-.31,.43-.54,.94-.7,1.52-.15,.58-.23,1.22-.23,1.91v7.29h-1.59v-13.06h1.47Z"/><path class="cls-1" d="M128.41,32.85c.27-.56,.64-1.01,1.1-1.37,.46-.36,1.01-.62,1.63-.78s1.32-.25,2.08-.25c.57,0,1.15,.05,1.72,.16,.57,.11,1.09,.32,1.54,.62,.46,.3,.83,.73,1.11,1.28,.29,.55,.43,1.26,.43,2.14v6.93c0,.64,.31,.96,.94,.96,.19,0,.36-.03,.51-.1v1.34c-.19,.03-.35,.06-.49,.08-.14,.02-.32,.03-.54,.03-.41,0-.73-.05-.97-.16-.25-.11-.43-.27-.57-.47s-.22-.44-.27-.72-.06-.59-.06-.92h-.05c-.29,.42-.58,.8-.87,1.13-.3,.33-.62,.6-.99,.82-.36,.22-.78,.39-1.24,.51-.46,.12-1.02,.18-1.66,.18-.61,0-1.18-.07-1.71-.21s-1-.37-1.39-.68c-.4-.31-.71-.71-.94-1.19s-.34-1.05-.34-1.71c0-.91,.2-1.62,.61-2.14,.4-.52,.94-.91,1.61-1.18,.67-.27,1.42-.46,2.25-.57,.83-.11,1.68-.21,2.54-.32,.34-.03,.63-.08,.89-.13,.25-.05,.46-.14,.63-.27s.3-.3,.39-.52c.09-.22,.14-.51,.14-.86,0-.54-.09-.98-.27-1.33-.18-.35-.42-.62-.73-.82-.31-.2-.68-.34-1.09-.42-.41-.08-.86-.11-1.33-.11-1.01,0-1.84,.24-2.48,.72s-.98,1.25-1.01,2.32h-1.59c.05-.76,.21-1.42,.48-1.97Zm7.97,3.9c-.1,.19-.3,.32-.58,.41-.29,.08-.54,.14-.76,.18-.68,.12-1.37,.22-2.09,.32-.72,.09-1.37,.23-1.96,.42s-1.08,.45-1.45,.8c-.38,.35-.57,.84-.57,1.48,0,.41,.08,.76,.24,1.08,.16,.31,.37,.58,.65,.81,.27,.23,.58,.4,.94,.52,.35,.12,.72,.18,1.09,.18,.61,0,1.19-.09,1.75-.28,.56-.19,1.04-.46,1.46-.81,.41-.35,.74-.78,.99-1.29,.24-.51,.37-1.08,.37-1.72v-2.08h-.05Z"/><path class="cls-1" d="M142.68,30.83v2.48h.05c.37-.91,.97-1.62,1.81-2.11s1.78-.75,2.85-.75c1,0,1.86,.19,2.59,.56,.74,.37,1.35,.87,1.84,1.51,.49,.63,.85,1.37,1.09,2.2,.24,.83,.35,1.72,.35,2.64s-.12,1.81-.35,2.65-.6,1.57-1.09,2.2c-.49,.63-1.1,1.13-1.84,1.49-.73,.36-1.6,.54-2.59,.54-.47,0-.94-.06-1.42-.18-.47-.12-.91-.3-1.32-.53s-.76-.53-1.08-.89c-.31-.35-.55-.77-.72-1.24h-.05v7.29h-1.59V30.83h1.47Zm8.74,4.52c-.16-.67-.41-1.26-.76-1.78-.35-.52-.79-.95-1.33-1.28-.54-.33-1.19-.49-1.95-.49-.88,0-1.61,.15-2.2,.46-.59,.3-1.06,.71-1.42,1.22s-.6,1.1-.75,1.77c-.14,.68-.21,1.38-.21,2.13,0,.68,.08,1.35,.24,2.01,.16,.67,.42,1.26,.78,1.78,.36,.52,.83,.95,1.42,1.28,.58,.33,1.3,.49,2.14,.49,.76,0,1.41-.16,1.95-.49,.54-.33,.98-.76,1.33-1.28,.35-.52,.6-1.12,.76-1.78,.16-.67,.24-1.34,.24-2.01s-.08-1.34-.24-2.01Z"/><path class="cls-1" d="M170.94,31.01c.77,.37,1.41,.87,1.94,1.49,.52,.63,.92,1.36,1.19,2.19s.41,1.72,.41,2.67-.14,1.84-.41,2.67-.67,1.56-1.19,2.19c-.52,.63-1.17,1.12-1.94,1.48-.77,.36-1.65,.54-2.64,.54s-1.88-.18-2.65-.54c-.77-.36-1.41-.86-1.94-1.48-.52-.62-.92-1.35-1.19-2.19s-.41-1.72-.41-2.67,.14-1.83,.41-2.67,.67-1.56,1.19-2.19c.52-.62,1.17-1.12,1.94-1.49,.77-.37,1.65-.56,2.65-.56s1.88,.19,2.64,.56Zm-4.64,1.27c-.57,.32-1.05,.74-1.43,1.27s-.67,1.12-.86,1.78-.29,1.34-.29,2.04,.1,1.37,.29,2.04c.19,.67,.48,1.26,.86,1.78s.86,.94,1.43,1.27c.57,.32,1.24,.48,2,.48s1.43-.16,2-.48c.57-.32,1.05-.74,1.43-1.27s.67-1.12,.86-1.78c.19-.67,.29-1.34,.29-2.04s-.1-1.37-.29-2.04-.48-1.26-.86-1.78-.86-.94-1.43-1.27c-.57-.32-1.24-.48-2-.48s-1.43,.16-2,.48Z"/><path class="cls-1" d="M179.3,32.17v11.72h-1.59v-11.72h-2.23v-1.34h2.23v-1.19c0-.56,.04-1.07,.13-1.54,.08-.47,.24-.88,.48-1.22,.24-.34,.56-.6,.97-.78s.94-.28,1.58-.28c.24,0,.46,0,.66,.03,.2,.02,.43,.04,.68,.08v1.37c-.22-.03-.42-.06-.61-.09-.19-.03-.37-.04-.56-.04-.44,0-.78,.07-1.01,.2-.24,.13-.41,.32-.52,.54s-.17,.49-.19,.8c-.02,.3-.03,.63-.03,.99v1.14h2.58v1.34h-2.58Z"/><path class="cls-1" d="M195.63,30.83v1.34h-2.66v8.81c0,.52,.07,.93,.21,1.23,.14,.3,.5,.46,1.08,.49,.46,0,.91-.03,1.37-.08v1.34c-.24,0-.47,0-.71,.03s-.47,.03-.71,.03c-1.06,0-1.81-.21-2.23-.62-.42-.41-.62-1.18-.61-2.29v-8.93h-2.28v-1.34h2.28v-3.92h1.6v3.92h2.66Z"/><path class="cls-1" d="M199.5,25.82v7.26h.05c.3-.79,.84-1.43,1.62-1.91s1.63-.72,2.56-.72,1.67,.12,2.29,.35,1.11,.57,1.48,1,.63,.96,.78,1.58c.15,.63,.23,1.33,.23,2.1v8.4h-1.59v-8.15c0-.56-.05-1.08-.15-1.56s-.28-.9-.53-1.25-.59-.63-1.03-.83c-.43-.2-.97-.3-1.61-.3s-1.21,.11-1.71,.34c-.5,.23-.92,.54-1.27,.94-.35,.4-.62,.87-.81,1.42-.19,.55-.3,1.14-.32,1.78v7.62h-1.59V25.82h1.59Z"/><path class="cls-1" d="M212.7,39.57c.16,.62,.42,1.17,.77,1.66,.35,.49,.8,.89,1.34,1.22,.54,.32,1.19,.48,1.95,.48,1.16,0,2.07-.3,2.73-.91s1.11-1.42,1.37-2.43h1.59c-.34,1.48-.96,2.63-1.86,3.44-.9,.81-2.18,1.21-3.83,1.21-1.03,0-1.92-.18-2.67-.54-.75-.36-1.36-.86-1.83-1.49-.47-.63-.82-1.37-1.05-2.2-.23-.83-.34-1.72-.34-2.65,0-.86,.11-1.7,.34-2.53,.23-.83,.58-1.56,1.05-2.22,.47-.65,1.08-1.17,1.83-1.57s1.64-.59,2.67-.59,1.94,.21,2.68,.63,1.35,.97,1.81,1.66c.46,.68,.8,1.47,1,2.35,.2,.88,.29,1.78,.25,2.69h-10.05c0,.57,.08,1.17,.24,1.78Zm7.9-4.87c-.19-.56-.47-1.05-.82-1.48-.36-.43-.78-.78-1.29-1.04s-1.08-.39-1.72-.39-1.24,.13-1.75,.39-.94,.61-1.29,1.04c-.35,.43-.64,.93-.85,1.49s-.35,1.14-.42,1.73h8.45c-.02-.61-.12-1.19-.32-1.75Z"/><path class="cls-1" d="M239.85,31.01c.77,.37,1.41,.87,1.94,1.49,.52,.63,.92,1.36,1.19,2.19s.41,1.72,.41,2.67-.14,1.84-.41,2.67-.67,1.56-1.19,2.19c-.52,.63-1.17,1.12-1.94,1.48-.77,.36-1.65,.54-2.64,.54s-1.88-.18-2.65-.54c-.77-.36-1.41-.86-1.94-1.48-.52-.62-.92-1.35-1.19-2.19s-.41-1.72-.41-2.67,.14-1.83,.41-2.67,.67-1.56,1.19-2.19c.52-.62,1.17-1.12,1.94-1.49,.77-.37,1.65-.56,2.65-.56s1.88,.19,2.64,.56Zm-4.64,1.27c-.57,.32-1.05,.74-1.43,1.27s-.67,1.12-.86,1.78-.29,1.34-.29,2.04,.1,1.37,.29,2.04c.19,.67,.48,1.26,.86,1.78s.86,.94,1.43,1.27c.57,.32,1.24,.48,2,.48s1.43-.16,2-.48c.57-.32,1.05-.74,1.43-1.27s.67-1.12,.86-1.78c.19-.67,.29-1.34,.29-2.04s-.1-1.37-.29-2.04-.48-1.26-.86-1.78-.86-.94-1.43-1.27c-.57-.32-1.24-.48-2-.48s-1.43,.16-2,.48Z"/><path class="cls-1" d="M247.36,25.82v7.49h.05c.17-.47,.41-.89,.72-1.24,.31-.35,.67-.65,1.08-.9,.41-.24,.84-.43,1.32-.54,.47-.12,.94-.18,1.42-.18,1,0,1.86,.19,2.59,.56,.74,.37,1.35,.87,1.84,1.51,.49,.63,.85,1.37,1.09,2.2,.24,.83,.35,1.72,.35,2.64s-.12,1.81-.35,2.65-.6,1.57-1.09,2.2c-.49,.63-1.1,1.13-1.84,1.49-.73,.36-1.6,.54-2.59,.54-1.06,0-2.01-.24-2.85-.73s-1.44-1.19-1.81-2.1h-.05v2.48h-1.47V25.82h1.59Zm8.62,9.53c-.16-.67-.41-1.26-.76-1.78-.35-.52-.79-.95-1.33-1.28-.54-.33-1.19-.49-1.95-.49-.84,0-1.56,.16-2.14,.49-.58,.33-1.05,.76-1.42,1.28-.36,.52-.63,1.12-.78,1.78-.16,.67-.24,1.34-.24,2.01s.08,1.35,.24,2.01c.16,.67,.42,1.26,.78,1.78,.36,.52,.83,.95,1.42,1.28,.58,.33,1.3,.49,2.14,.49,.76,0,1.41-.16,1.95-.49,.54-.33,.98-.76,1.33-1.28,.35-.52,.6-1.12,.76-1.78,.16-.67,.24-1.34,.24-2.01s-.08-1.34-.24-2.01Z"/><path class="cls-1" d="M267.81,33.37c-.19-.36-.43-.66-.75-.9-.31-.24-.67-.41-1.08-.52s-.83-.16-1.29-.16c-.35,0-.71,.04-1.08,.11-.36,.08-.7,.2-1,.38-.3,.18-.55,.41-.73,.7-.19,.29-.28,.64-.28,1.06,0,.35,.09,.65,.27,.9,.18,.24,.4,.45,.67,.62,.27,.17,.57,.31,.89,.42,.32,.11,.61,.2,.89,.27l2.12,.48c.46,.07,.91,.19,1.36,.37,.45,.18,.84,.41,1.19,.7,.35,.29,.63,.64,.85,1.06,.22,.42,.33,.92,.33,1.49,0,.71-.16,1.31-.48,1.81-.32,.5-.73,.9-1.23,1.21-.5,.31-1.06,.54-1.68,.67-.63,.13-1.24,.2-1.85,.2-1.54,0-2.78-.36-3.73-1.09-.95-.72-1.5-1.89-1.63-3.49h1.59c.07,1.08,.46,1.89,1.18,2.44,.72,.55,1.61,.82,2.67,.82,.39,0,.79-.04,1.2-.13,.41-.08,.8-.23,1.15-.43,.35-.2,.65-.46,.87-.77,.23-.31,.34-.7,.34-1.15,0-.39-.08-.71-.24-.98-.16-.26-.38-.48-.64-.66-.27-.18-.58-.32-.92-.44-.35-.12-.7-.22-1.05-.3l-2.05-.46c-.52-.13-1-.29-1.44-.47-.44-.18-.82-.4-1.15-.66-.33-.26-.59-.58-.77-.96-.19-.38-.28-.85-.28-1.4,0-.66,.15-1.22,.44-1.7,.3-.47,.68-.85,1.15-1.14,.47-.29,1-.5,1.58-.63,.58-.13,1.16-.2,1.73-.2,.66,0,1.27,.08,1.83,.25s1.06,.43,1.49,.78c.43,.35,.77,.79,1.03,1.32s.4,1.14,.43,1.85h-1.59c-.02-.49-.12-.92-.3-1.28Z"/><path class="cls-1" d="M273.64,39.57c.16,.62,.42,1.17,.77,1.66,.35,.49,.8,.89,1.34,1.22,.54,.32,1.19,.48,1.95,.48,1.16,0,2.07-.3,2.73-.91s1.11-1.42,1.37-2.43h1.59c-.34,1.48-.96,2.63-1.86,3.44-.9,.81-2.18,1.21-3.83,1.21-1.03,0-1.92-.18-2.67-.54-.75-.36-1.36-.86-1.83-1.49-.47-.63-.82-1.37-1.05-2.2-.23-.83-.34-1.72-.34-2.65,0-.86,.11-1.7,.34-2.53,.23-.83,.58-1.56,1.05-2.22,.47-.65,1.08-1.17,1.83-1.57s1.64-.59,2.67-.59,1.94,.21,2.68,.63,1.35,.97,1.81,1.66c.46,.68,.8,1.47,1,2.35,.2,.88,.29,1.78,.25,2.69h-10.05c0,.57,.08,1.17,.24,1.78Zm7.9-4.87c-.19-.56-.47-1.05-.82-1.48-.36-.43-.78-.78-1.29-1.04s-1.08-.39-1.72-.39-1.24,.13-1.75,.39-.94,.61-1.29,1.04c-.35,.43-.64,.93-.85,1.49s-.35,1.14-.42,1.73h8.45c-.02-.61-.12-1.19-.32-1.75Z"/><path class="cls-1" d="M287.07,30.83v3.06h.05c.4-1.06,1.03-1.88,1.88-2.45,.85-.57,1.87-.83,3.05-.78v1.59c-.73-.03-1.38,.06-1.97,.29s-1.1,.55-1.53,.97c-.43,.42-.76,.92-1,1.51-.24,.58-.35,1.22-.35,1.91v6.96h-1.59v-13.06h1.47Z"/><path class="cls-1" d="M293.87,30.83l4.1,11.47h.05l4.05-11.47h1.64l-4.88,13.06h-1.7l-5.04-13.06h1.77Z"/><path class="cls-1" d="M305.62,32.85c.27-.56,.64-1.01,1.1-1.37,.46-.36,1.01-.62,1.63-.78s1.32-.25,2.08-.25c.57,0,1.15,.05,1.72,.16,.57,.11,1.09,.32,1.54,.62,.46,.3,.83,.73,1.11,1.28,.29,.55,.43,1.26,.43,2.14v6.93c0,.64,.31,.96,.94,.96,.19,0,.36-.03,.51-.1v1.34c-.19,.03-.35,.06-.49,.08-.14,.02-.32,.03-.54,.03-.41,0-.73-.05-.97-.16-.25-.11-.43-.27-.57-.47s-.22-.44-.27-.72-.06-.59-.06-.92h-.05c-.29,.42-.58,.8-.87,1.13-.3,.33-.62,.6-.99,.82-.36,.22-.78,.39-1.24,.51-.46,.12-1.02,.18-1.66,.18-.61,0-1.18-.07-1.71-.21s-1-.37-1.39-.68c-.4-.31-.71-.71-.94-1.19s-.34-1.05-.34-1.71c0-.91,.2-1.62,.61-2.14,.4-.52,.94-.91,1.61-1.18,.67-.27,1.42-.46,2.25-.57,.83-.11,1.68-.21,2.54-.32,.34-.03,.63-.08,.89-.13,.25-.05,.46-.14,.63-.27s.3-.3,.39-.52c.09-.22,.14-.51,.14-.86,0-.54-.09-.98-.27-1.33-.18-.35-.42-.62-.73-.82-.31-.2-.68-.34-1.09-.42-.41-.08-.86-.11-1.33-.11-1.01,0-1.84,.24-2.48,.72s-.98,1.25-1.01,2.32h-1.59c.05-.76,.21-1.42,.48-1.97Zm7.97,3.9c-.1,.19-.3,.32-.58,.41-.29,.08-.54,.14-.76,.18-.68,.12-1.37,.22-2.09,.32-.72,.09-1.37,.23-1.96,.42s-1.08,.45-1.45,.8c-.38,.35-.57,.84-.57,1.48,0,.41,.08,.76,.24,1.08,.16,.31,.37,.58,.65,.81,.27,.23,.58,.4,.94,.52,.35,.12,.72,.18,1.09,.18,.61,0,1.19-.09,1.75-.28,.56-.19,1.04-.46,1.46-.81,.41-.35,.74-.78,.99-1.29,.24-.51,.37-1.08,.37-1.72v-2.08h-.05Z"/><path class="cls-1" d="M320.02,25.82v7.49h.05c.17-.47,.41-.89,.72-1.24,.31-.35,.67-.65,1.08-.9,.41-.24,.84-.43,1.32-.54,.47-.12,.94-.18,1.42-.18,1,0,1.86,.19,2.59,.56,.74,.37,1.35,.87,1.84,1.51,.49,.63,.85,1.37,1.09,2.2,.24,.83,.35,1.72,.35,2.64s-.12,1.81-.35,2.65-.6,1.57-1.09,2.2c-.49,.63-1.1,1.13-1.84,1.49-.73,.36-1.6,.54-2.59,.54-1.06,0-2.01-.24-2.85-.73s-1.44-1.19-1.81-2.1h-.05v2.48h-1.47V25.82h1.59Zm8.62,9.53c-.16-.67-.41-1.26-.76-1.78-.35-.52-.79-.95-1.33-1.28-.54-.33-1.19-.49-1.95-.49-.84,0-1.56,.16-2.14,.49-.58,.33-1.05,.76-1.42,1.28-.36,.52-.63,1.12-.78,1.78-.16,.67-.24,1.34-.24,2.01s.08,1.35,.24,2.01c.16,.67,.42,1.26,.78,1.78,.36,.52,.83,.95,1.42,1.28,.58,.33,1.3,.49,2.14,.49,.76,0,1.41-.16,1.95-.49,.54-.33,.98-.76,1.33-1.28,.35-.52,.6-1.12,.76-1.78,.16-.67,.24-1.34,.24-2.01s-.08-1.34-.24-2.01Z"/><path class="cls-1" d="M334.57,25.82v18.07h-1.59V25.82h1.59Z"/><path class="cls-1" d="M338.81,39.57c.16,.62,.42,1.17,.77,1.66,.35,.49,.8,.89,1.34,1.22,.54,.32,1.19,.48,1.95,.48,1.16,0,2.07-.3,2.73-.91s1.11-1.42,1.37-2.43h1.59c-.34,1.48-.96,2.63-1.86,3.44-.9,.81-2.18,1.21-3.83,1.21-1.03,0-1.92-.18-2.67-.54-.75-.36-1.36-.86-1.83-1.49-.47-.63-.82-1.37-1.05-2.2-.23-.83-.34-1.72-.34-2.65,0-.86,.11-1.7,.34-2.53,.23-.83,.58-1.56,1.05-2.22,.47-.65,1.08-1.17,1.83-1.57s1.64-.59,2.67-.59,1.94,.21,2.68,.63,1.35,.97,1.81,1.66c.46,.68,.8,1.47,1,2.35,.2,.88,.29,1.78,.25,2.69h-10.05c0,.57,.08,1.17,.24,1.78Zm7.9-4.87c-.19-.56-.47-1.05-.82-1.48-.36-.43-.78-.78-1.29-1.04s-1.08-.39-1.72-.39-1.24,.13-1.75,.39-.94,.61-1.29,1.04c-.35,.43-.64,.93-.85,1.49s-.35,1.14-.42,1.73h8.45c-.02-.61-.12-1.19-.32-1.75Z"/></g></svg>