<?xml version="1.0" encoding="UTF-8"?><svg id="Layer_1" xmlns="http://www.w3.org/2000/svg" viewBox="0 0 24 20"><defs><style>.cls-1{fill:#fff;}</style></defs><path class="cls-1" d="M11.88,12.99l3.1-3.1v.11c.01,1.65-1.34,3-2.99,3h-.11ZM19.93,4.96l-3.27,3.27c.21,.55,.34,1.15,.34,1.78,0,2.76-2.24,5-5,5-.63,0-1.23-.13-1.78-.34l-2.38,2.37c1.28,.59,2.67,.97,4.18,.97,7.73,0,11.98-8.45,11.98-8.45,0,0-1.42-2.48-4.07-4.59Zm1.43-3.54L2.74,20l-1.38-1.42,3.45-3.45C1.8,12.68,0,9.55,0,9.55,0,9.55,4.45,2,12.02,2c1.82,0,3.46,.43,4.89,1.08l3.08-3.08,1.38,1.42ZM7.61,12.34l1.52-1.52c-.08-.26-.13-.54-.13-.83,0-1.65,1.35-3,3-3,.29,0,.57,.06,.83,.13l1.52-1.51c-.7-.38-1.5-.62-2.35-.62-2.76,0-5,2.24-5,5,0,.85,.24,1.64,.61,2.34Z"/></svg>