<?xml version="1.0" encoding="UTF-8"?><svg id="Layer_2" xmlns="http://www.w3.org/2000/svg" viewBox="0 0 347.25 91.02"><defs><style>.cls-1,.cls-2{fill:#fff;}.cls-2{font-family:HelveticaNeue-Light, 'Helvetica Neue';font-size:23.12px;}</style></defs><g><path class="cls-1" d="M63.9,6.09V54.48c0,10.37-2.41,18.04-7.24,23-4.82,4.97-11.84,7.45-21.06,7.45s-16.24-2.48-21.06-7.45c-4.82-4.97-7.24-12.64-7.24-23V6.09h2.16V54.48c0,9.29,2.12,16.35,6.37,21.17,4.25,4.82,10.84,7.24,19.76,7.24s15.52-2.41,19.76-7.24c4.25-4.82,6.37-11.88,6.37-21.17V6.09h2.16Z"/><path class="cls-1" d="M74.31,31.8v12.7h.2c.47-2,1.22-3.83,2.25-5.5,1.03-1.67,2.33-3.13,3.9-4.4,1.57-1.27,3.38-2.25,5.45-2.95,2.07-.7,4.37-1.05,6.9-1.05,2.67,0,5.12,.4,7.35,1.2,2.23,.8,4.17,1.98,5.8,3.55,1.63,1.57,2.9,3.5,3.8,5.8,.9,2.3,1.35,4.95,1.35,7.95v34.1h-2V49.4c0-3-.43-5.55-1.3-7.65-.87-2.1-2.05-3.83-3.55-5.2-1.5-1.37-3.23-2.37-5.2-3-1.97-.63-4.05-.95-6.25-.95-3.07,0-5.77,.58-8.1,1.75-2.33,1.17-4.28,2.73-5.85,4.7-1.57,1.97-2.75,4.25-3.55,6.85-.8,2.6-1.2,5.33-1.2,8.2v29.1h-2V31.8h2Z"/><path class="cls-1" d="M119.72,83.2V31.8h2v51.4h-2Z"/><path class="cls-1" d="M170.12,31.8l-19.4,51.4h-2.5l-21.1-51.4h2.3l19.9,49.4h.2l18.4-49.4h2.2Z"/><path class="cls-1" d="M174.67,67.55c.77,2.97,1.95,5.55,3.55,7.75s3.67,3.93,6.2,5.2c2.53,1.27,5.63,1.9,9.3,1.9,5.4,0,9.88-1.42,13.45-4.25,3.56-2.83,5.78-7.08,6.65-12.75h2c-.73,6-3.1,10.65-7.1,13.95s-8.93,4.95-14.8,4.95c-4,.07-7.42-.57-10.25-1.9-2.83-1.33-5.15-3.22-6.95-5.65-1.8-2.43-3.13-5.3-4-8.6-.87-3.3-1.3-6.85-1.3-10.65,0-4.27,.63-8.07,1.9-11.4,1.27-3.33,2.93-6.15,5-8.45,2.07-2.3,4.47-4.05,7.2-5.25s5.53-1.8,8.4-1.8c4,0,7.45,.77,10.35,2.3,2.9,1.53,5.27,3.57,7.1,6.1,1.83,2.53,3.17,5.43,4,8.7,.83,3.27,1.18,6.67,1.05,10.2h-43c.07,3.47,.48,6.69,1.25,9.65Zm38.45-20.6c-.87-2.83-2.15-5.32-3.85-7.45-1.7-2.13-3.82-3.82-6.35-5.05-2.54-1.23-5.47-1.85-8.8-1.85-2.8,0-5.42,.53-7.85,1.6-2.43,1.07-4.57,2.62-6.4,4.65-1.83,2.03-3.32,4.48-4.45,7.35-1.13,2.87-1.8,6.1-2,9.7h41c0-3.13-.44-6.12-1.3-8.95Z"/><path class="cls-1" d="M224.42,83.2V31.8h2v12.7h.2c.47-1.93,1.2-3.75,2.2-5.45s2.33-3.18,4-4.45c1.67-1.27,3.65-2.27,5.95-3,2.3-.73,4.98-1.07,8.05-1v2c-3.53-.2-6.58,.28-9.15,1.45-2.57,1.17-4.68,2.77-6.35,4.8-1.67,2.03-2.9,4.38-3.7,7.05-.8,2.67-1.2,5.4-1.2,8.2v29.1h-2Z"/><path class="cls-1" d="M282.82,40.4c-.8-1.8-1.93-3.28-3.4-4.45-1.47-1.17-3.22-2.02-5.25-2.55-2.03-.53-4.28-.8-6.75-.8-3.6,0-6.43,.48-8.5,1.45-2.07,.97-3.6,2.07-4.6,3.3-1,1.23-1.63,2.45-1.9,3.65-.27,1.2-.4,2.03-.4,2.5,0,2.53,.52,4.48,1.55,5.85,1.03,1.37,2.42,2.42,4.15,3.15,1.8,.73,3.75,1.37,5.85,1.9,2.1,.53,4.55,1.17,7.35,1.9,2,.53,3.98,1.08,5.95,1.65,1.97,.57,3.73,1.35,5.3,2.35,1.57,1,2.83,2.27,3.8,3.8,.97,1.53,1.45,3.53,1.45,6,0,2.6-.55,4.8-1.65,6.6-1.1,1.8-2.53,3.27-4.3,4.4-1.77,1.13-3.77,1.95-6,2.45-2.23,.5-4.45,.75-6.65,.75-6.87,0-12.05-1.5-15.55-4.5-3.5-3-5.25-7.73-5.25-14.2h2c0,5.8,1.62,10.05,4.85,12.75,3.23,2.7,7.88,4.05,13.95,4.05,1.87,0,3.78-.22,5.75-.65,1.96-.43,3.75-1.13,5.35-2.1,1.6-.97,2.92-2.22,3.95-3.75,1.03-1.53,1.55-3.4,1.55-5.6s-.52-4.1-1.55-5.5c-1.03-1.4-2.37-2.55-4-3.45-1.63-.9-3.52-1.62-5.65-2.15-2.13-.53-4.3-1.07-6.5-1.6-2.47-.6-4.63-1.17-6.5-1.7-1.87-.53-3.54-1.13-5-1.8-2.13-.93-3.7-2.23-4.7-3.9-1-1.67-1.5-3.9-1.5-6.7,0-1.4,.3-2.87,.9-4.4,.6-1.53,1.6-2.93,3-4.2,1.4-1.27,3.2-2.3,5.4-3.1,2.2-.8,4.9-1.2,8.1-1.2,5.73,0,10.27,1.3,13.6,3.9,3.33,2.6,5,6.77,5,12.5h-2c0-2.6-.4-4.8-1.2-6.6Z"/><path class="cls-1" d="M297.07,67.55c.77,2.97,1.95,5.55,3.55,7.75,1.6,2.2,3.67,3.93,6.2,5.2,2.53,1.27,5.63,1.9,9.3,1.9,5.4,0,9.88-1.42,13.45-4.25,3.57-2.83,5.78-7.08,6.65-12.75h2c-.73,6-3.1,10.65-7.1,13.95s-8.93,4.95-14.8,4.95c-4,.07-7.42-.57-10.25-1.9-2.83-1.33-5.15-3.22-6.95-5.65-1.8-2.43-3.13-5.3-4-8.6-.87-3.3-1.3-6.85-1.3-10.65,0-4.27,.63-8.07,1.9-11.4,1.27-3.33,2.93-6.15,5-8.45,2.07-2.3,4.47-4.05,7.2-5.25,2.73-1.2,5.53-1.8,8.4-1.8,4,0,7.45,.77,10.35,2.3,2.9,1.53,5.27,3.57,7.1,6.1,1.83,2.53,3.17,5.43,4,8.7,.83,3.27,1.18,6.67,1.05,10.2h-43c.07,3.47,.48,6.69,1.25,9.65Zm38.45-20.6c-.87-2.83-2.15-5.32-3.85-7.45-1.7-2.13-3.82-3.82-6.35-5.05-2.54-1.23-5.47-1.85-8.8-1.85-2.8,0-5.42,.53-7.85,1.6-2.43,1.07-4.57,2.62-6.4,4.65-1.83,2.03-3.32,4.48-4.45,7.35-1.13,2.87-1.8,6.1-2,9.7h41c0-3.13-.43-6.12-1.3-8.95Z"/></g><text class="cls-2" transform="translate(71.91 22.86)"><tspan x="0" y="0">The map of the observable </tspan></text></svg>